<?xml version="1.0" encoding="UTF-8"?>
<svg width="100pt" height="100pt" version="1.1" viewBox="0 0 100 100" xmlns="http://www.w3.org/2000/svg">
    <path d="m5.9883 9.043h88.027c1.8477 0.007812 3.3477 1.5078 3.3516 3.3555v53.754h-94.734v-53.754c0-1.8516 1.5039-3.3516 3.3555-3.3555zm58.738 79.828v2.0859h-29.449v-2.0859c0.003906-0.56641 0.46094-1.0234 1.0234-1.0312h27.398c0.5625 0.007812 1.0195 0.46484 1.0234 1.0312zm-5.2891-4.1875h-18.871v-6.0625l18.867-0.003906v6.0625zm34.578-9.2227h-88.027c-0.89062 0-1.7461-0.35156-2.375-0.98047-0.62891-0.63281-0.98047-1.4844-0.98047-2.375v-2.793h94.738l-0.003906 2.793c0.003906 0.89062-0.35156 1.7422-0.98047 2.375-0.62891 0.62891-1.4844 0.98047-2.3711 0.98047zm-42.43-3.0742c0-0.875-0.70703-1.582-1.5781-1.582h-0.019531c-0.63672 0.007812-1.207 0.39844-1.4453 0.98828-0.23828 0.58984-0.10156 1.2656 0.35156 1.7148 0.45312 0.44922 1.1328 0.57813 1.7188 0.33594 0.58984-0.24609 0.97266-0.82031 0.97266-1.457zm-21.098-15.273c0.62109 0.60156 1.6094 0.60156 2.2344 0l36.789-36.789c0.61719-0.61719 0.62109-1.6172 0.003906-2.2383-0.61719-0.61719-1.6172-0.62109-2.2383-0.003907l-36.789 36.789c-0.61719 0.62109-0.61719 1.6211 0 2.2422zm2.4492-14.285c0.625 0.60156 1.6094 0.60156 2.2344 0l20.051-20.066c0.32422-0.28906 0.51562-0.69922 0.52734-1.1328s-0.15625-0.85156-0.46484-1.1602c-0.30469-0.30469-0.72656-0.47266-1.1602-0.46094-0.43359 0.011719-0.84375 0.20313-1.1328 0.52734l-20.055 20.051c-0.61719 0.62109-0.61719 1.625 0 2.2422zm34.125-10.465v0.003907c-0.62109-0.60547-1.6133-0.60547-2.2344 0l-20.055 20.066c-0.31641 0.28906-0.5 0.69922-0.50781 1.1289s0.16016 0.84375 0.46484 1.1484c0.30469 0.30469 0.71875 0.46875 1.1484 0.46094 0.42969-0.007813 0.83594-0.19531 1.1289-0.51172l20.055-20.051c0.61328-0.62109 0.61328-1.6211 0-2.2422z" fill-rule="evenodd"/>
</svg>
