<svg class="w-6 h-6" height="40" width="40" xmlns="http://www.w3.org/2000/svg">
    <defs>
        <linearGradient x1="0%" y1="100%" x2="100%" y2="0%" id="Arch_Amazon-WorkMail_32_svg__a">
            <stop stop-color="#BD0816" offset="0%"></stop>
            <stop stop-color="#FF5252" offset="100%"></stop>
        </linearGradient>
    </defs>
    <g fill="none" fill-rule="evenodd">
        <path d="M0 0h40v40H0z" fill="url(#Arch_Amazon-WorkMail_32_svg__a)"></path>
        <path d="M7 33V7.707l12.647 12.647a.5.5 0 00.707 0L33 7.707V33H7zM32.293 7L20 19.292 7.707 7h24.586zM33.5 6h-27a.5.5 0 00-.5.5v27a.5.5 0 00.5.5h27a.5.5 0 00.5-.5v-27a.5.5 0 00-.5-.5z"
              fill="#FFF"></path>
    </g>
</svg>
