<svg class="w-6 h-6" height="40" viewBox="0 0 50 50" width="40" xmlns="http://www.w3.org/2000/svg">
    <defs>
        <style>.Res_Disk_48_Dark_svg__cls-1{fill:#c0c0c0}</style>
    </defs>
    <g id="Res_Disk_48_Dark_svg__Working">
        <path class="Res_Disk_48_Dark_svg__cls-1"
              d="M25 48.5A23.5 23.5 0 1148.5 25 23.52 23.52 0 0125 48.5zm0-45A21.5 21.5 0 1046.5 25 21.52 21.52 0 0025 3.5z"></path>
        <path class="Res_Disk_48_Dark_svg__cls-1"
              d="M25 35.38A10.38 10.38 0 1135.38 25 10.4 10.4 0 0125 35.38zm0-18.76A8.38 8.38 0 1033.38 25 8.39 8.39 0 0025 16.62z"></path>
        <path class="Res_Disk_48_Dark_svg__cls-1"
              d="M25 30.69A5.69 5.69 0 1130.69 25 5.69 5.69 0 0125 30.69zm0-9.38A3.69 3.69 0 1028.69 25 3.7 3.7 0 0025 21.31z"></path>
    </g>
</svg>
