<?xml version="1.0" encoding="UTF-8"?>
<svg width="100pt" height="100pt" version="1.1" viewBox="0 0 100 100" xmlns="http://www.w3.org/2000/svg">
    <path fill="#FFFFFF" d="m33.527 25.438c-1.332 0-2.4609 0.35156-3.2266 1.1211-0.76562 0.77344-1.0938 1.8828-1.082 3.2266v20.25c-0.011719 1.6328 0.3125 2.793 1.1406 3.5039 0.82812 0.71094 1.9609 0.86719 3.3047 0.86719h32.668c1.3633 0 2.5117-0.34766 3.2852-1.1211 0.77734-0.77344 1.1094-1.9102 1.1211-3.2852l0.039063-20.133c-0.12891-1.2305-0.4375-2.5508-1.1602-3.3047-0.77344-0.78125-1.9023-1.1211-3.2461-1.1211zm0 1.2578h32.848c1.1328 0 1.8789 0.26172 2.3633 0.74609 0.48047 0.48438 0.77734 1.2539 0.78906 2.4219l-0.039063 20.113c-0.097656 0.85938-0.22656 1.8594-0.76562 2.4219-0.47656 0.47656-1.2227 0.74609-2.3828 0.74609h-32.668c-1.2422 0-2.0391-0.17188-2.4805-0.55078s-0.71875-1.0781-0.70703-2.5391v-20.27c-0.011719-1.1289 0.25781-1.8672 0.72656-2.3438 0.82031-0.54688 1.582-0.74219 2.3203-0.74609zm-1.2188 1.8906v22.672h35.266v-22.672h-35.266zm1.2578 1.2578h32.746v20.152h-32.746zm-3.6992 25.82c-0.84766-0.011718-1.6289 0.37891-2.2031 0.94531-0.57422 0.56641-0.96484 1.332-0.96484 2.1641v12.633c0 0.83203 0.39453 1.5938 0.96484 2.1641 0.57031 0.57031 1.3281 0.97266 2.1641 0.98438h40.363c0.74609-0.007813 1.6289-0.49219 2.1445-1.0039 0.5625-0.57031 0.96484-1.3281 0.96484-2.1641v-12.594c0-0.84375-0.40234-1.6133-0.96484-2.1836s-1.3203-0.95703-2.1445-0.94531zm-0.019532 1.2578h40.344c0.53906 0.050781 0.90234 0.33203 1.2383 0.57031 0.36719 0.37109 0.60937 0.875 0.60937 1.3008v12.594c0 0.41016-0.23828 0.92188-0.60937 1.2969-0.37109 0.375-0.85156 0.60547-1.2383 0.60938h-40.344c-0.42188-0.007813-0.92578-0.25391-1.3008-0.62891s-0.58984-0.85156-0.58984-1.2578v-12.633c0-0.40625 0.21484-0.89063 0.58984-1.2578 0.39453-0.36719 0.875-0.49609 1.3008-0.58984zm27.078 1.8906v12.594h1.2578v-12.594zm5.0391 0v12.594h1.2578v-12.594zm5.0391 0v12.594h1.2578v-12.594zm-34.066 1.2578c-1.043 0-1.8906 0.84766-1.8906 1.8906 0 1.043 0.84766 1.8906 1.8906 1.8906s1.8906-0.84766 1.8906-1.8906c0-1.043-0.84766-1.8906-1.8906-1.8906zm6.2969 0c-1.043 0-1.8906 0.84766-1.8906 1.8906 0 1.043 0.84766 1.8906 1.8906 1.8906s1.8906-0.84766 1.8906-1.8906c0-1.043-0.84766-1.8906-1.8906-1.8906z"/>
</svg>
