<?xml version="1.0" encoding="UTF-8"?>
<svg width="100pt" height="100pt" version="1.1" viewBox="0 0 100 100" xmlns="http://www.w3.org/2000/svg">
    <g>
        <path fill="#1d4ed8" d="m89.523 33.164h-81.023c-2.8359 0-5.1445-2.3438-5.1445-5.2266l0.003906-16.059c0-2.8828 2.3086-5.2305 5.1445-5.2305h81.023c2.8359 0 5.1445 2.3438 5.1445 5.2266v16.059c-0.003906 2.8867-2.3125 5.2305-5.1484 5.2305zm-81.023-22.668c-0.71484 0-1.3008 0.62109-1.3008 1.3867v16.059c0 0.76172 0.58203 1.3828 1.3008 1.3828h81.023c0.71484 0 1.3008-0.62109 1.3008-1.3828v-16.062c0-0.76172-0.58203-1.3828-1.3008-1.3828z"/>
        <path fill="#1d4ed8" d="m85.664 19.906c0 5.3398-8.0156 5.3398-8.0156 0 0-5.3359 8.0156-5.3359 8.0156 0"/>
        <path fill="#1d4ed8" d="m89.523 93.57h-81.023c-2.8359 0-5.1445-2.3477-5.1445-5.2305l0.003906-16.055c0-2.8828 2.3086-5.2266 5.1445-5.2266h81.023c2.8359 0 5.1445 2.3438 5.1445 5.2266v16.055c-0.003906 2.8828-2.3125 5.2305-5.1484 5.2305zm-81.023-22.672c-0.71484 0-1.3008 0.62109-1.3008 1.3828v16.055c0 0.76562 0.58203 1.3867 1.3008 1.3867h81.023c0.71484 0 1.3008-0.62109 1.3008-1.3867v-16.051c0-0.76172-0.58203-1.3828-1.3008-1.3828z"/>
        <path fill="#1d4ed8" d="m85.664 80.312c0 5.3359-8.0156 5.3359-8.0156 0s8.0156-5.3359 8.0156 0"/>
        <path fill="#1d4ed8" d="m89.523 63.367h-81.023c-2.8359 0-5.1445-2.3438-5.1445-5.2266l0.003906-16.059c0-2.8828 2.3086-5.2266 5.1445-5.2266h81.023c2.8359 0 5.1445 2.3438 5.1445 5.2266v16.059c-0.003906 2.8828-2.3125 5.2266-5.1484 5.2266zm-81.023-22.668c-0.71484 0-1.3008 0.62109-1.3008 1.3828v16.059c0 0.76172 0.58203 1.3828 1.3008 1.3828h81.023c0.71484 0 1.3008-0.62109 1.3008-1.3828v-16.059c0-0.76172-0.58203-1.3828-1.3008-1.3828z"/>
        <path fill="#1d4ed8" d="m85.664 50.109c0 5.3398-8.0156 5.3398-8.0156 0 0-5.3359 8.0156-5.3359 8.0156 0"/>
    </g>
</svg>
