<?xml version="1.0" encoding="UTF-8"?>
<svg width="100pt" height="100pt" version="1.1" viewBox="0 0 100 100" xmlns="http://www.w3.org/2000/svg">
    <path fill="#047857" d="m77.961 43.961c-1.0703-10.074-7.7812-25.211-27.961-25.211s-26.891 15.137-27.965 25.211c-7.8164 1.0625-18.91 6.4297-18.91 21.668 0 17.305 14.309 21.875 21.875 21.875h50c7.5664 0 21.875-4.5703 21.875-21.875 0-15.238-11.094-20.605-18.914-21.668zm-46.711 31.031c0-5.707 4.8047-6.2266 6.25-6.25 1.7109 0 3.1055-1.3945 3.125-3.1055 0.019531-1.5703 0.55469-9.3945 9.375-9.3945s9.3555 7.8203 9.375 9.375c0 1.7266 1.3984 3.125 3.125 3.125 1.043 0 6.25 0.30469 6.25 6.25 0 5.6953-4.7852 6.2266-6.2656 6.25h-24.984c-1.043 0-6.25-0.30078-6.25-6.25zm43.742 6.2617h-1.5234c0.92969-1.6914 1.5312-3.7344 1.5312-6.2617 0-7.5312-5.043-11.125-9.6328-12.168-0.96875-5.5234-4.9141-12.832-15.367-12.832s-14.398 7.3086-15.367 12.832c-4.5898 1.043-9.6328 4.6367-9.6328 12.168 0 2.5234 0.60156 4.5703 1.5273 6.2578l-1.5273 0.003906c-0.63672 0-15.625-0.17969-15.625-15.625 0-15.074 14.039-15.617 15.625-15.625 1.7188 0 3.1172-1.3984 3.125-3.1172 0.003906-0.89453 0.36719-21.887 21.875-21.887s21.867 20.992 21.875 21.875c0 1.7148 1.3984 3.1133 3.1133 3.125 1.6016 0.011719 15.637 0.55078 15.637 15.625 0 15.062-14.008 15.617-15.633 15.629z"/>
</svg>
